<?xml version="1.0" standalone="no"?>
<!DOCTYPE svg PUBLIC "-//W3C//DTD SVG 20010904//EN"
 "http://www.w3.org/TR/2001/REC-SVG-20010904/DTD/svg10.dtd">
<svg version="1.0" xmlns="http://www.w3.org/2000/svg"
 width="1000.000000pt" height="200.000000pt" viewBox="0 0 1000.000000 200.000000"
 preserveAspectRatio="xMidYMid meet">

<g transform="translate(0.000000,200.000000) scale(0.100000,-0.100000)"
fill="#262b3a" stroke="none">
<path d="M1112 1654 c-39 -19 -59 -38 -80 -72 l-27 -47 3 -307 2 -308 -24 0
c-14 0 -37 11 -52 23 -26 23 -28 29 -34 153 -4 71 -11 138 -15 149 -28 71 -97
87 -146 34 -15 -17 -31 -46 -35 -65 -11 -60 2 -305 19 -359 37 -116 113 -189
218 -208 69 -14 69 -12 69 -200 l0 -130 88 6 c84 5 197 34 255 63 l27 15 0
204 c0 195 1 205 19 205 39 0 148 40 188 70 26 20 52 51 68 85 26 52 27 59 23
197 -2 120 -6 148 -22 175 -27 43 -66 59 -106 43 -45 -19 -63 -61 -70 -169 -6
-86 -9 -96 -34 -117 -15 -13 -36 -24 -47 -24 -18 0 -19 9 -19 213 0 248 -9
297 -65 346 -33 29 -89 51 -131 51 -11 0 -44 -12 -72 -26z"/>
<path d="M2295 1419 c-27 -6 -79 -24 -114 -41 -312 -149 -312 -617 0 -766 192
-91 437 -56 569 82 l34 37 -74 69 c-106 97 -109 98 -151 59 -59 -56 -138 -74
-206 -48 -149 56 -149 312 0 368 67 26 160 1 213 -56 30 -33 42 -27 139 62
l80 74 -30 31 c-45 48 -109 89 -173 111 -67 24 -214 33 -287 18z"/>
<path d="M6825 1419 c-27 -6 -79 -24 -114 -41 -312 -149 -312 -617 0 -766 192
-91 437 -56 569 82 l34 37 -74 69 c-106 97 -109 98 -151 59 -59 -56 -138 -74
-206 -48 -149 56 -149 312 0 368 67 26 160 1 213 -56 30 -33 42 -27 139 62
l80 74 -30 31 c-45 48 -109 89 -173 111 -67 24 -214 33 -287 18z"/>
<path d="M4430 1281 l0 -90 -42 -3 -43 -3 0 -100 0 -100 43 -3 42 -3 0 -108
c0 -165 35 -236 140 -285 58 -27 225 -29 281 -4 l37 16 -33 93 -33 94 -42 -3
c-63 -5 -70 6 -70 109 l0 88 63 3 62 3 0 100 0 100 -62 3 -63 3 0 89 0 90
-140 0 -140 0 0 -89z"/>
<path d="M3024 1225 c-67 -14 -164 -53 -164 -65 0 -13 79 -180 85 -180 3 0 34
9 68 21 77 26 158 23 188 -8 l21 -20 -109 -6 c-161 -8 -235 -42 -269 -123 -17
-40 -18 -112 -3 -151 46 -123 253 -174 371 -91 26 18 27 18 30 -4 3 -23 6 -23
133 -23 l130 0 -1 210 c0 235 -10 288 -67 352 -77 88 -247 124 -413 88z m196
-429 c0 -29 -34 -56 -70 -56 -30 0 -50 17 -50 42 0 24 27 37 78 38 38 0 42 -2
42 -24z"/>
<path d="M3883 1225 c-165 -46 -252 -147 -261 -300 -5 -95 7 -144 49 -208 129
-196 492 -210 617 -23 17 26 32 53 32 60 0 12 -181 106 -204 106 -8 0 -24 -13
-36 -29 -36 -51 -107 -59 -149 -16 -22 22 -26 34 -26 85 0 51 4 63 26 86 46
45 124 32 154 -26 9 -17 18 -30 20 -30 16 0 215 107 215 115 0 6 -13 31 -28
56 -32 50 -90 94 -154 116 -62 22 -192 26 -255 8z"/>
<path d="M6020 1234 c-153 -30 -240 -111 -240 -224 0 -118 64 -171 242 -201
61 -11 113 -21 116 -23 2 -3 1 -10 -3 -17 -12 -19 -159 -5 -229 21 -48 18 -60
20 -67 9 -17 -27 -71 -170 -67 -175 16 -15 135 -47 210 -57 163 -21 315 22
382 106 39 49 48 143 21 201 -32 67 -90 95 -252 121 -92 15 -105 21 -83 36 24
16 150 5 202 -19 35 -15 49 -17 56 -9 10 13 72 168 72 179 0 4 -30 17 -67 28
-67 21 -238 35 -293 24z"/>
<path d="M7554 1225 c-67 -14 -164 -53 -164 -65 0 -13 79 -180 85 -180 3 0 34
9 68 21 77 26 158 23 188 -8 l21 -20 -109 -6 c-154 -8 -217 -34 -262 -108 -23
-38 -28 -118 -10 -166 46 -123 253 -174 371 -91 26 18 27 18 30 -4 3 -23 6
-23 133 -23 l130 0 -1 210 c0 235 -10 288 -67 352 -77 88 -247 124 -413 88z
m196 -429 c0 -29 -34 -56 -70 -56 -30 0 -50 17 -50 42 0 24 27 37 78 38 38 0
42 -2 42 -24z"/>
<path d="M8533 1231 c-17 -4 -47 -18 -67 -29 l-35 -21 -3 22 c-3 21 -8 22
-135 25 l-133 3 0 -331 0 -331 138 3 137 3 5 188 5 189 28 24 c35 30 78 31
103 3 17 -19 19 -41 22 -215 l4 -195 136 3 137 3 0 225 c0 155 -4 238 -13 268
-16 52 -72 116 -125 143 -43 23 -153 33 -204 20z"/>
<path d="M4972 988 c3 -232 4 -245 26 -287 51 -94 122 -135 237 -135 74 0 104
7 166 41 4 2 9 -5 12 -17 5 -19 13 -20 136 -20 l131 0 0 330 0 331 -137 -3
-138 -3 -5 -187 c-5 -180 -6 -187 -29 -212 -28 -30 -71 -34 -95 -10 -9 8 -17
16 -18 17 -1 1 -4 90 -7 197 l-6 195 -138 3 -138 3 3 -243z"/>
<path d="M9082 873 c-36 -7 -89 -64 -101 -111 -21 -77 12 -151 83 -183 49 -22
95 -24 139 -5 36 14 87 69 87 92 0 8 5 14 10 14 6 0 10 18 10 40 0 22 -4 40
-10 40 -5 0 -10 6 -10 14 0 23 -51 78 -87 92 -31 14 -74 16 -121 7z"/>
</g>
</svg>
